<svg xmlns="http://www.w3.org/2000/svg" xmlns:xlink="http://www.w3.org/1999/xlink" viewBox="0 0 351.19 337.19"><defs><style>.cls-1{mask:url(#mask);filter:url(#luminosity-noclip-2);}.cls-2{mix-blend-mode:multiply;fill:url(#linear-gradient);}.cls-3{fill:url(#linear-gradient-2);}.cls-4{fill:url(#linear-gradient-3);}.cls-5{fill:#edcc0f;}.cls-6{fill:#e8b113;}.cls-7{mask:url(#mask-2);}.cls-8{opacity:0.85;fill:url(#linear-gradient-4);}.cls-9{fill:url(#linear-gradient-5);}.cls-10{fill:url(#linear-gradient-6);}.cls-11{fill:#fffcd7;}.cls-12{filter:url(#luminosity-noclip);}</style><filter id="luminosity-noclip" x="3.07" y="-8917.86" width="284.77" height="32766" filterUnits="userSpaceOnUse" color-interpolation-filters="sRGB"><feFlood flood-color="#fff" result="bg"/><feBlend in="SourceGraphic" in2="bg"/></filter><mask id="mask" x="3.07" y="-8917.86" width="284.77" height="32766" maskUnits="userSpaceOnUse"><g class="cls-12"/></mask><linearGradient id="linear-gradient" x1="-819.74" y1="-79.99" x2="-942.23" y2="-189.14" gradientTransform="matrix(0.67, -0.05, -0.42, 0.79, 690.78, 217.96)" gradientUnits="userSpaceOnUse"><stop offset="0"/><stop offset="1" stop-color="#fff"/></linearGradient><linearGradient id="linear-gradient-2" x1="18.54" y1="167.1" x2="351.19" y2="167.1" gradientUnits="userSpaceOnUse"><stop offset="0.03" stop-color="#e8a213"/><stop offset="0.99" stop-color="#e8a913"/></linearGradient><linearGradient id="linear-gradient-3" x1="233.48" y1="243.66" x2="331.16" y2="379.2" gradientUnits="userSpaceOnUse"><stop offset="0.03" stop-color="#e88613"/><stop offset="1" stop-color="#e89c13"/></linearGradient><filter id="luminosity-noclip-2" x="3.07" y="8.42" width="284.77" height="285.58" filterUnits="userSpaceOnUse" color-interpolation-filters="sRGB"><feFlood flood-color="#fff" result="bg"/><feBlend in="SourceGraphic" in2="bg"/></filter><mask id="mask-2" x="3.07" y="8.42" width="284.77" height="285.58" maskUnits="userSpaceOnUse"><g class="cls-1"><path class="cls-2" d="M287.36,57.6A165.71,165.71,0,0,0,198.2,8.42L3.07,202.65A167,167,0,0,0,52.55,294L287.84,59.54Z"/></g></mask><linearGradient id="linear-gradient-4" x1="-819.74" y1="-79.99" x2="-942.23" y2="-189.14" gradientTransform="matrix(0.67, -0.05, -0.42, 0.79, 690.78, 217.96)" gradientUnits="userSpaceOnUse"><stop offset="0" stop-color="#fff"/><stop offset="1" stop-color="#fff4a4"/></linearGradient><linearGradient id="linear-gradient-5" x1="44.23" y1="24.68" x2="198.12" y2="206.77" gradientUnits="userSpaceOnUse"><stop offset="0" stop-color="#ea9e11"/><stop offset="1" stop-color="#eab111"/></linearGradient><linearGradient id="linear-gradient-6" x1="101.14" y1="98.2" x2="210.09" y2="216.83" xlink:href="#linear-gradient-3"/></defs><g id="Layer_2" data-name="Layer 2"><g id="Isolation_Mode" data-name="Isolation Mode"><ellipse class="cls-3" cx="184.86" cy="167.1" rx="166.32" ry="167.1"/><ellipse class="cls-4" cx="180.04" cy="169.52" rx="166.32" ry="167.1"/><ellipse class="cls-5" cx="166.64" cy="169.52" rx="166.32" ry="167.1"/><path class="cls-6" d="M275,43.26l4.51,4c1.5,1.26,3.22,3,5.26,5,1,1,2.15,2,3.27,3.25l3.51,3.87a156.3,156.3,0,0,1,16.05,21.31,163.48,163.48,0,0,1,15.36,31.29c1.2,3,2,6.16,3.11,9.34s1.77,6.53,2.68,9.88c.72,3.4,1.47,6.87,2,10.41s1.17,7.17,1.41,10.87c.17,1.84.33,3.7.5,5.57s.16,3.77.25,5.67.2,3.73.14,5.84c0,1.87-.06,3.76-.08,5.66-.1,3.79-.4,7.93-.8,11.88s-.95,8-1.73,12c-.61,4-1.65,8-2.54,12-1.13,4-2.14,8-3.55,12-1.25,4-2.86,7.91-4.39,11.87-1.74,3.86-3.44,7.78-5.47,11.55a162.13,162.13,0,0,1-13.56,22,167.87,167.87,0,0,1-16.85,19.88,178,178,0,0,1-19.79,16.95,184.27,184.27,0,0,1-22,13.62,163.66,163.66,0,0,1-23.45,9.88,181.67,181.67,0,0,1-24.08,6.05,168,168,0,0,1-23.88,2.32c-2,.12-3.91,0-5.85,0s-3.77,0-5.87-.14c-3.74-.3-7.3-.38-11.12-.93A161.2,161.2,0,0,1,76,309.75a159.91,159.91,0,0,1-21.17-16.94c-2.7-2.6-5.11-4.91-7-7.12s-3.65-3.95-4.89-5.53L39,275.43l4.39,4.27c1.39,1.43,3.25,3,5.42,4.93s4.72,4,7.59,6.33a181.39,181.39,0,0,0,22,14.78,176.38,176.38,0,0,0,31.2,13.68,171.3,171.3,0,0,0,39.1,7.5c3.39.37,7.2.3,10.89.44,1.62.06,3.58-.07,5.36-.1s3.67,0,5.51-.23a183.32,183.32,0,0,0,22.36-2.85A169.26,169.26,0,0,0,215.26,318,187,187,0,0,0,237,308.38a172.47,172.47,0,0,0,20.38-12.85,170.76,170.76,0,0,0,18.31-15.92,155.44,155.44,0,0,0,15.85-18.36,151,151,0,0,0,12.82-20.37,164.22,164.22,0,0,0,9.6-21.69c1.42-3.65,2.44-7.41,3.61-11.1.91-3.76,2-7.45,2.66-11.21.83-3.73,1.35-7.48,1.91-11.19.31-1.86.39-3.67.61-5.49s.45-3.58.52-5.52.21-3.77.32-5.65c.12-1.63.05-3.58.08-5.34s.07-3.59,0-5.37-.17-3.54-.25-5.29a167.08,167.08,0,0,0-6.88-39A176.19,176.19,0,0,0,303.69,82.9a173.44,173.44,0,0,0-14-22.09c-2.18-2.91-4.15-5.5-6-7.64s-3.33-4.06-4.69-5.47Z"/><g class="cls-7"><path class="cls-8" d="M287.36,57.6A165.71,165.71,0,0,0,198.2,8.42L3.07,202.65A167,167,0,0,0,52.55,294L287.84,59.54Z"/></g><ellipse class="cls-9" cx="166.64" cy="169.52" rx="104.25" ry="104.74"/><path class="cls-10" d="M193.15,91.42A103.39,103.39,0,0,1,252.4,110a104,104,0,0,0-85.76-45.21c-57.58,0-104.25,46.89-104.25,104.74a104.76,104.76,0,0,0,45,86.17A104.56,104.56,0,0,1,88.9,196.16C88.9,138.31,135.58,91.42,193.15,91.42Z"/><path class="cls-6" d="M246.75,102.52l-2.5-2.86c-.79-1-1.86-2.06-3.12-3.36-.63-.64-1.29-1.37-2-2.08L236.66,92a100.4,100.4,0,0,0-13.33-10.32,104.93,104.93,0,0,0-19.54-10c-1.86-.79-3.85-1.36-5.83-2.08s-4.08-1.2-6.18-1.82-4.29-1-6.51-1.43-4.48-.84-6.79-1l-3.49-.4c-1.18-.12-2.36.14-3.55,0s-2.34.13-3.66.12l-3.55,0c-2.38,0-5-.15-7.46,0s-5,.34-7.51.77-5,.86-7.58,1.37-5.06,1.21-7.55,2-5,1.69-7.49,2.61-4.93,2.07-7.31,3.31a98.86,98.86,0,0,0-13.94,8.35A102.2,102.2,0,0,0,92.75,94a108.88,108.88,0,0,0-10.81,12.5,114.16,114.16,0,0,0-8.7,14,103.19,103.19,0,0,0-6.3,15.06,114.14,114.14,0,0,0-3.83,15.55,107,107,0,0,0-1.42,15.49c-.07,1.28,0,2.55,0,3.81s0,2.45.12,3.82c.21,2.44.27,4.76.64,7.25a106.32,106.32,0,0,0,28.6,60.94c1.71,1.76,3.22,3.34,4.67,4.59s2.58,2.38,3.61,3.19c2,1.65,3.09,2.54,3.09,2.54l-2.79-2.86c-.93-.91-2-2.13-3.23-3.54s-2.62-3.08-4.15-4.95A119.53,119.53,0,0,1,82.54,227a116.28,116.28,0,0,1-9.05-20.4,111.75,111.75,0,0,1-5.06-25.52c-.25-2.2-.23-4.69-.33-7.08,0-1.06,0-2.33,0-3.49s0-2.38.13-3.58A117.68,117.68,0,0,1,70,152.43,109.29,109.29,0,0,1,74,138a115.92,115.92,0,0,1,6.1-13.94,106.1,106.1,0,0,1,8.19-13A104,104,0,0,1,98.38,99.49,94.74,94.74,0,0,1,110,89.58a92.34,92.34,0,0,1,12.91-7.92,100.36,100.36,0,0,1,13.69-5.81c2.3-.85,4.68-1.45,7-2.14,2.37-.53,4.69-1.17,7.05-1.54s4.7-.75,7-1c1.17-.17,2.31-.19,3.45-.31s2.25-.24,3.46-.25l3.54-.13c1-.05,2.24,0,3.35,0s2.25,0,3.36.08l3.32.24a105.81,105.81,0,0,1,24.36,4.84A113.86,113.86,0,0,1,222,84.06a111,111,0,0,1,13.79,9c1.82,1.4,3.44,2.66,4.78,3.84s2.54,2.13,3.43,3Z"/><path class="cls-11" d="M240.25,95l2.82,2.58c.94.82,2,1.91,3.29,3.21.63.65,1.35,1.32,2,2.1l2.19,2.49a99.83,99.83,0,0,1,10,13.66,104.46,104.46,0,0,1,9.49,19.92c.75,1.89,1.26,3.91,1.92,5.92s1.08,4.13,1.64,6.26.89,4.34,1.24,6.58.7,4.53.84,6.86c.09,1.17.19,2.34.29,3.52s-.2,2.38-.15,3.58-.19,2.35-.22,3.68c0,1.18-.05,2.36-.08,3.56-.05,2.39,0,5-.25,7.48s-.48,5-1,7.53-1,5-1.56,7.57-1.33,5-2.23,7.52-1.79,5-2.76,7.46-2.17,4.89-3.46,7.26a102.87,102.87,0,0,1-8.56,13.81A105.31,105.31,0,0,1,245.11,250a112.12,112.12,0,0,1-12.49,10.66,117.32,117.32,0,0,1-13.89,8.56,102.85,102.85,0,0,1-14.85,6.22,114.06,114.06,0,0,1-15.28,3.8,107.11,107.11,0,0,1-15.18,1.44c-1.25.08-2.49,0-3.72,0s-2.4,0-3.74-.11c-2.39-.19-4.66-.24-7.09-.6A103.51,103.51,0,0,1,112.76,263a101.88,101.88,0,0,1-13.6-10.9c-1.74-1.68-3.3-3.17-4.52-4.59S92.29,245,91.49,244l-2.51-3,2.82,2.75c.9.92,2.1,1.95,3.49,3.18s3,2.58,4.89,4.07a109.59,109.59,0,0,0,34.15,18.34,109.85,109.85,0,0,0,25,4.85c2.17.24,4.6.21,7,.3,1,0,2.28,0,3.41-.05s2.34,0,3.51-.14a115.45,115.45,0,0,0,14.23-1.77,107.75,107.75,0,0,0,14.2-3.9,120.26,120.26,0,0,0,13.77-6,107.65,107.65,0,0,0,12.89-8.08,105.68,105.68,0,0,0,11.57-10,98,98,0,0,0,10-11.53,94.75,94.75,0,0,0,8.1-12.8,102.63,102.63,0,0,0,6.09-13.63c.9-2.29,1.56-4.66,2.3-7,.59-2.37,1.27-4.69,1.7-7.05s.88-4.71,1.24-7c.2-1.17.25-2.32.4-3.46s.3-2.26.34-3.48.15-2.38.23-3.56c.08-1,0-2.25.07-3.36s.05-2.27,0-3.39-.09-2.24-.14-3.34a107.07,107.07,0,0,0-4.15-24.67,114.14,114.14,0,0,0-7.92-19.8,112,112,0,0,0-8.69-14.13c-1.36-1.86-2.59-3.52-3.73-4.9s-2.08-2.61-2.93-3.53Z"/><path class="cls-11" d="M61,298.23l-4.62-3.89c-1.54-1.24-3.3-2.9-5.4-4.87-1-1-2.21-2-3.35-3.19L44,282.47a154.85,154.85,0,0,1-16.58-21,163.06,163.06,0,0,1-16.08-31c-1.27-3-2.18-6.14-3.32-9.3s-1.9-6.5-2.88-9.85c-.79-3.39-1.61-6.84-2.27-10.39S1.56,193.71,1.25,190c-.21-1.84-.41-3.7-.62-5.57s-.23-3.77-.35-5.67S0,175,0,172.92c0-1.87,0-3.76,0-5.66,0-3.79.25-7.95.57-11.91s.8-8,1.51-12c.54-4,1.51-8,2.32-12.08,1.07-4,2-8.07,3.34-12,1.17-4,2.72-8,4.18-11.94,1.67-3.9,3.3-7.85,5.27-11.65A162,162,0,0,1,30.37,73.43a168.13,168.13,0,0,1,16.5-20.14A177.93,177.93,0,0,1,66.35,36a185.12,185.12,0,0,1,21.72-14,164.36,164.36,0,0,1,23.24-10.27,182.52,182.52,0,0,1,23.93-6.46A167.56,167.56,0,0,1,159,2.56c1.95-.16,3.9-.08,5.83-.12s3.76-.08,5.86,0c3.74.22,7.3.23,11.12.7a161.31,161.31,0,0,1,93.85,41.09c2.75,2.53,5.21,4.78,7.16,6.93s3.73,3.84,5,5.38l4,4.62s-1.55-1.45-4.47-4.15c-1.41-1.39-3.31-2.94-5.51-4.78s-4.79-3.88-7.71-6.13a179.28,179.28,0,0,0-22.26-14.23A176.41,176.41,0,0,0,220.5,19a171.66,171.66,0,0,0-39.14-6.69c-3.39-.3-7.19-.16-10.87-.22-1.62,0-3.57.14-5.35.2s-3.65.11-5.49.34a183.27,183.27,0,0,0-22.26,3.25,169.36,169.36,0,0,0-22.23,6.61,188.86,188.86,0,0,0-21.52,10A173.17,173.17,0,0,0,73.51,45.57a170.74,170.74,0,0,0-18,16.21A156.55,156.55,0,0,0,40,80.39,151.59,151.59,0,0,0,27.51,101a162.29,162.29,0,0,0-9.21,21.85c-1.36,3.68-2.31,7.46-3.41,11.17-.85,3.78-1.86,7.49-2.46,11.27-.77,3.74-1.22,7.5-1.7,11.22-.28,1.87-.32,3.68-.52,5.51s-.38,3.6-.41,5.53-.14,3.79-.21,5.66c-.09,1.64,0,3.59,0,5.35s0,3.6.11,5.38l.36,5.3a167,167,0,0,0,7.68,38.92,176.86,176.86,0,0,0,13.52,30.95,173.49,173.49,0,0,0,14.51,21.85c2.26,2.87,4.29,5.43,6.19,7.54s3.43,4,4.83,5.39Z"/></g></g></svg>