<?xml version="1.0" encoding="iso-8859-1"?>
<!-- Generator: Adobe Illustrator 19.0.0, SVG Export Plug-In . SVG Version: 6.00 Build 0)  -->
<svg version="1.1" id="Capa_1" xmlns="http://www.w3.org/2000/svg" xmlns:xlink="http://www.w3.org/1999/xlink" x="0px" y="0px"
	 viewBox="0 0 512 512" style="enable-background:new 0 0 512 512;" xml:space="preserve">
<path style="fill:#FF9F00;" d="M401.56,269.694c-0.12-0.21-0.245-0.417-0.375-0.622l-74.951-117.633
	c3.355-5.534,7.984-13.36,12.651-21.865c16.893-30.786,19.06-42.563,19.06-49.383c0-25.457-20.59-46.188-45.968-46.37
	C301.216,13.408,279.74,0,255.999,0s-45.216,13.408-55.976,33.821c-25.379,0.182-45.968,20.881-45.968,46.299
	c0,6.821,2.167,18.597,19.063,49.357c4.666,8.494,9.293,16.312,12.648,21.839l-74.947,117.763c-0.085,0.134-0.167,0.269-0.248,0.404
	c-17.438,27.994-26.654,58.498-26.654,88.235c0,41.555,18.132,80.517,51.057,109.71C167.389,496.171,210.37,512,255.999,512
	s88.61-15.829,121.026-44.571c32.925-29.193,51.057-68.155,51.057-109.71C428.083,328.056,418.912,297.63,401.56,269.694z"/>
<path style="fill:#FFD154;" d="M255.999,0c-23.741,0-45.216,13.408-55.976,33.821c-25.379,0.182-45.968,20.881-45.968,46.299
	c0,6.821,2.167,18.597,19.063,49.357c4.666,8.494,9.293,16.312,12.648,21.839l-74.947,117.763c-0.085,0.134-0.167,0.269-0.248,0.404
	c-17.438,27.994-26.654,58.498-26.654,88.235c0,41.555,18.132,80.517,51.057,109.71C167.389,496.171,210.37,512,255.999,512V0z"/>
<path style="fill:#FF9F00;" d="M233.982,86.812c-2.697-7.833-11.231-11.998-19.066-9.3c-7.833,2.696-11.997,11.232-9.3,19.065
	l20.564,59.734c2.14,6.216,7.957,10.121,14.182,10.121c1.619,0,3.267-0.265,4.884-0.821c7.833-2.696,11.997-11.232,9.3-19.065
	L233.982,86.812z"/>
<g>
	<path style="fill:#D26A00;" d="M297.779,77.512c-7.834-2.7-16.37,1.467-19.066,9.3l-20.564,59.734
		c-2.697,7.833,1.467,16.369,9.3,19.065c1.618,0.558,3.264,0.821,4.884,0.821c6.225,0,12.042-3.905,14.182-10.121l20.564-59.734
		C309.776,88.744,305.612,80.208,297.779,77.512z"/>
	<path style="fill:#D26A00;" d="M395.352,181.368c-29.921-47.02-91.028-45.265-98.243-44.875l-104.598-0.198
		c-0.007,0-0.013,0-0.019,0c-26.695,0-44.497-10.299-53.987-17.884c-5.339-4.267-12.925-4.269-18.347-0.109l0,0
		c-7.72,5.922-7.83,17.519-0.214,23.574c13.623,10.832,37.66,24.419,72.518,24.419c0.004,0,0.008,0,0.012,0h105.05
		c0.007,0,0.013,0,0.02,0c0.175,0,0.345,0.113,0.519,0.107c0.179-0.007,0.354,0.068,0.534,0.055
		c0.496-0.039,49.782-3.061,71.447,30.983c2.859,4.493,7.711,6.966,12.669,6.966c2.755,0,5.542-0.75,8.039-2.338
		C397.74,197.62,399.8,188.356,395.352,181.368z"/>
</g>
<path style="fill:#FF9F00;" d="M255.999,136.462l-63.488-0.167h-0.019c-26.695,0-44.497-10.299-53.987-17.884
	c-5.339-4.267-12.925-4.269-18.347-0.109l0,0c-7.72,5.921-7.83,17.519-0.214,23.574c13.623,10.832,37.66,24.419,72.518,24.419
	h63.537V136.462z"/>
<path style="fill:#53433F;" d="M267.615,318.909h-23.23c-7.928,0-14.377-6.06-14.377-14c0-7.939,6.449-14,14.377-14h34.392
	c1.773,0,3.216,1.208,3.216,2.988c0,8.284,6.716,14.88,15,14.88s15-6.535,15-14.819c0-18.323-14.9-33.048-33.216-33.048H271v-8
	c0-8.284-6.716-15-15-15c-8.284,0-15,6.716-15,15v7.661c-22.893,1.738-40.992,20.757-40.992,44.098
	c0,24.482,19.907,44.241,44.377,44.241h23.23c7.928,0,14.377,6.56,14.377,14.5c0,7.939-6.449,14.5-14.377,14.5h-34.392
	c-1.773,0-3.216-1.391-3.216-3.172c0-8.284-6.716-14.971-15-14.971s-15,6.673-15,14.957c0,18.323,14.9,33.186,33.216,33.186h7.777
	v9.611c0,8.284,6.716,15,15,15c8.284,0,15-6.716,15-15v-9.638c22.893-1.738,40.992-21.074,40.992-44.415
	C311.992,338.985,292.084,318.909,267.615,318.909z"/>
<g>
	<path style="fill:#987F77;" d="M244.384,348.909h11.615v-30h-11.615c-7.928,0-14.377-6.06-14.377-14c0-7.939,6.449-14,14.377-14
		h11.615v-53c-8.284,0-15,6.716-15,15v7.661c-22.893,1.738-40.992,20.757-40.992,44.098
		C200.007,329.15,219.914,348.909,244.384,348.909z"/>
	<path style="fill:#987F77;" d="M255.999,377.909h-22.776c-1.773,0-3.216-1.391-3.216-3.172c0-8.284-6.716-14.971-15-14.971
		s-15,6.673-15,14.957c0,18.323,14.9,33.186,33.216,33.186h7.776v9.611c0,8.284,6.716,15,15,15V377.909z"/>
</g>
<g>
</g>
<g>
</g>
<g>
</g>
<g>
</g>
<g>
</g>
<g>
</g>
<g>
</g>
<g>
</g>
<g>
</g>
<g>
</g>
<g>
</g>
<g>
</g>
<g>
</g>
<g>
</g>
<g>
</g>
</svg>
